<svg width="97" height="98" viewBox="0 0 97 98" fill="none" xmlns="http://www.w3.org/2000/svg">
<circle cx="48.5" cy="49.2704" r="48.5" transform="rotate(-90 48.5 49.2704)" fill="#2578FF"/>
<mask id="mask0_1_135" style="mask-type:alpha" maskUnits="userSpaceOnUse" x="27" y="27" width="44" height="44">
<rect x="27" y="27.7702" width="43.1111" height="43.1111" fill="#D9D9D9"/>
</mask>
<g mask="url(#mask0_1_135)">
<path d="M37.7778 49.3258H41.3704V45.7332H37.7778V49.3258ZM37.7778 56.5109H52.1481V52.9183H37.7778V56.5109ZM55.7407 56.5109H59.3333V52.9183H55.7407V56.5109ZM44.963 49.3258H59.3333V45.7332H44.963V49.3258ZM34.1852 63.6961C33.1972 63.6961 32.3518 63.3446 31.6488 62.6417C30.9447 61.9375 30.5926 61.0915 30.5926 60.1035V38.548C30.5926 37.56 30.9447 36.7146 31.6488 36.0116C32.3518 35.3075 33.1972 34.9554 34.1852 34.9554H62.9259C63.9139 34.9554 64.7599 35.3075 65.4641 36.0116C66.167 36.7146 66.5185 37.56 66.5185 38.548V60.1035C66.5185 61.0915 66.167 61.9375 65.4641 62.6417C64.7599 63.3446 63.9139 63.6961 62.9259 63.6961H34.1852Z" fill="#05192D"/>
</g>
</svg>
