<svg width="97" height="98" viewBox="0 0 97 98" fill="none" xmlns="http://www.w3.org/2000/svg">
<circle cx="48.5" cy="49.2704" r="48.5" transform="rotate(-90 48.5 49.2704)" fill="#2578FF"/>
<mask id="mask0_1_145" style="mask-type:alpha" maskUnits="userSpaceOnUse" x="27" y="27" width="44" height="44">
<rect x="27" y="27.7704" width="43.1111" height="43.1111" fill="#D9D9D9"/>
</mask>
<g mask="url(#mask0_1_145)">
<path d="M39.5741 38.5482V34.9556C39.5741 33.9677 39.9261 33.1216 40.6303 32.4175C41.3332 31.7145 42.1787 31.363 43.1667 31.363H53.9444C54.9324 31.363 55.7785 31.7145 56.4826 32.4175C57.1856 33.1216 57.537 33.9677 57.537 34.9556V38.5482H62.9259C63.9139 38.5482 64.7599 38.9003 65.4641 39.6044C66.167 40.3074 66.5185 41.1529 66.5185 42.1408V61.9001C66.5185 62.888 66.167 63.7341 65.4641 64.4382C64.7599 65.1412 63.9139 65.4927 62.9259 65.4927H34.1852C33.1972 65.4927 32.3518 65.1412 31.6488 64.4382C30.9447 63.7341 30.5926 62.888 30.5926 61.9001V42.1408C30.5926 41.1529 30.9447 40.3074 31.6488 39.6044C32.3518 38.9003 33.1972 38.5482 34.1852 38.5482H39.5741ZM43.1667 38.5482H53.9444V34.9556H43.1667V38.5482ZM34.1852 58.3075H62.9259V52.9186H34.1852V58.3075Z" fill="#05192D"/>
</g>
</svg>
