<svg width="97" height="98" viewBox="0 0 97 98" fill="none" xmlns="http://www.w3.org/2000/svg">
<circle cx="48.5" cy="49.2704" r="48.5" transform="rotate(-90 48.5 49.2704)" fill="#2578FF"/>
<mask id="mask0_1_130" style="mask-type:alpha" maskUnits="userSpaceOnUse" x="27" y="27" width="44" height="44">
<rect x="27" y="27.7702" width="43.1111" height="43.1111" fill="#D9D9D9"/>
</mask>
<g mask="url(#mask0_1_130)">
<path d="M44.2444 55.7924L46.7593 53.2327L42.8523 49.3258L46.7593 45.4188L44.2444 42.8591L37.7778 49.3258L44.2444 55.7924ZM52.8667 55.7924L59.3333 49.3258L52.8667 42.8591L50.3518 45.4188L54.2588 49.3258L50.3518 53.2327L52.8667 55.7924ZM35.9815 65.4924C34.9935 65.4924 34.1475 65.1409 33.4433 64.438C32.7404 63.7338 32.3889 62.8878 32.3889 61.8998V36.7517C32.3889 35.7637 32.7404 34.9177 33.4433 34.2135C34.1475 33.5106 34.9935 33.1591 35.9815 33.1591H61.1296C62.1176 33.1591 62.9636 33.5106 63.6678 34.2135C64.3707 34.9177 64.7222 35.7637 64.7222 36.7517V61.8998C64.7222 62.8878 64.3707 63.7338 63.6678 64.438C62.9636 65.1409 62.1176 65.4924 61.1296 65.4924H35.9815Z" fill="#05192D"/>
</g>
</svg>
