<svg width="221" height="137" viewBox="0 0 221 137" fill="none" xmlns="http://www.w3.org/2000/svg">
<circle cx="55" cy="55" r="55" transform="matrix(-0.965926 0.258819 0.258819 0.965926 106.252 0)" fill="#2578FF"/>
<path d="M87.3411 47.6928L94.7247 75.2488C96.2865 81.0777 92.8239 87.0752 86.995 88.637L59.439 96.0206C53.6101 97.5825 47.6126 94.1198 46.0507 88.2909L38.6671 60.735C37.1053 54.9061 40.568 48.9085 46.3969 47.3467L73.9528 39.9631C79.7817 38.4012 85.7792 41.8639 87.3411 47.6928Z" fill="#05192D" stroke="#05192D" stroke-width="0.454545"/>
<path d="M84.5891 74.4884L78.4797 51.6877C78.068 50.1514 76.4911 49.241 74.9548 49.6526L52.1541 55.7621C50.4714 56.2129 50.1847 58.4591 51.6932 59.3094L81.7783 76.6791C83.2381 77.5425 85.0334 76.1467 84.5891 74.4884Z" fill="white"/>
<circle cx="55" cy="55" r="55" transform="matrix(-0.965926 -0.258819 -0.258819 0.965926 220.405 30.2891)" fill="#960000"/>
<path d="M168.98 52.9692C163.787 54.384 159.588 55.8481 155.679 57.6146C155.107 57.8775 154.494 58.1358 154.323 58.202C153.613 58.4536 152.969 59.0662 152.582 59.8496C152.455 60.0993 152.212 60.8221 151.944 61.7162C151.682 62.5816 151.423 63.3432 151.307 63.5771C151.075 64.0448 150.508 64.7388 150.217 64.8904C150.008 65.0082 149.278 65.0088 147.62 64.8915C147.239 64.8665 146.629 64.8307 146.26 64.8086C145.767 64.7912 145.578 64.7607 145.534 64.694C145.412 64.5272 145.365 64.1159 145.434 63.8514C145.492 63.627 145.539 63.5655 145.742 63.4462C146.118 63.2248 146.716 63.2878 147.267 63.6026C147.378 63.6685 147.389 63.6528 147.46 63.3767C147.592 62.8705 147.441 62.5304 146.776 61.8729C146.156 61.2576 146.005 60.9421 146.118 60.5049C146.203 60.1771 146.387 60.0836 146.761 60.1806C146.997 60.2419 147.17 60.3544 147.647 60.7421C147.97 61.0102 148.294 61.2538 148.371 61.2862C148.493 61.3363 148.524 61.3136 148.627 61.1069C148.704 60.9491 148.745 60.7693 148.754 60.5445C148.77 60.131 148.577 59.7372 147.993 59.0084C147.561 58.4726 147.34 58.0469 147.344 57.7716C147.339 57.6966 147.413 57.5503 147.508 57.4459C147.633 57.2942 147.717 57.2546 147.9 57.2592C148.096 57.2609 148.217 57.3168 148.694 57.631C149.004 57.8341 149.345 58.0332 149.453 58.0673L149.649 58.1368L149.761 57.7054C149.851 57.3358 149.857 57.2206 149.781 56.9186C149.662 56.4578 149.307 55.9299 148.821 55.509C148.455 55.1929 148.438 55.1639 148.552 55.1016C148.76 54.9896 149.005 54.9918 149.612 55.1125C150.174 55.2156 150.193 55.2143 150.228 55.082C150.28 54.8807 150.177 54.4733 150.009 54.2455C149.928 54.1324 149.661 53.8604 149.41 53.642C148.78 53.0915 148.65 52.9044 148.571 52.4539C148.484 51.9343 148.502 51.724 148.652 51.4558C148.842 51.1246 149.381 50.8469 150.41 50.5492C151.06 50.3619 151.293 50.2688 151.315 50.1826C151.347 50.0618 151.172 49.906 150.936 49.8448C150.798 49.8089 150.8 49.8032 150.93 49.3028C151.001 49.0267 151.138 48.62 151.228 48.3916C151.323 48.1647 151.383 47.9592 151.376 47.9389C151.363 47.9172 151.178 47.9429 150.967 47.9987C150.475 48.1225 149.975 48.1771 148.904 48.2121C147.769 48.2553 147.181 48.3235 146.642 48.4844C145.957 48.6872 145.322 48.5777 143.81 47.9947C143.565 47.8945 143.06 47.7141 142.683 47.5796C141.165 47.0441 140.079 47.1122 139.319 47.7929L138.997 48.084L138.643 48.0289C138.449 47.9969 137.961 47.9133 137.555 47.8447C135.345 47.4674 133.859 47.5852 132.764 48.234C132.416 48.4384 131.991 48.7762 131.926 48.9068C131.878 48.9986 132.394 49.1142 133.445 49.252C134.323 49.3694 135.402 49.6371 135.78 49.8337C136.142 50.0258 136.314 50.2363 136.485 50.6919C136.559 50.9015 136.715 51.2244 136.82 51.4112L137.009 51.7488L136.771 51.7178C135.825 51.6012 132.124 50.6526 132.043 50.5149C132.03 50.4932 132.225 50.4272 132.481 50.3647C132.937 50.2621 133.091 50.1669 133.018 50.0438C132.997 50.0075 132.663 49.8287 132.281 49.6436C131.089 49.0578 129.62 48.0443 128.504 47.0238C128.245 46.7909 128.022 46.6101 128.002 46.6172C127.928 46.6655 128.022 47.5802 128.171 48.282C128.545 49.9876 129.469 51.5843 130.693 52.6634C130.937 52.8803 131.184 53.0671 131.241 53.082C131.368 53.1148 131.365 53.0528 131.273 52.3904C131.24 52.1422 131.226 51.936 131.24 51.9275C131.269 51.9104 133.719 52.6445 135.377 53.161L136.143 53.4029L136.193 53.6368C136.221 53.7668 136.2 54.1788 136.159 54.5489C135.981 56.0377 136.019 56.4589 136.389 56.8067C136.502 56.9158 136.626 56.9847 136.655 56.9676C136.685 56.9449 136.927 56.6271 137.181 56.2632C137.441 55.9009 137.674 55.5931 137.702 55.5818C137.728 55.5763 137.785 55.6892 137.821 55.8337C137.934 56.2498 138.082 56.2454 138.48 55.8022C139.065 55.1559 140.104 54.6522 140.624 54.7563C140.786 54.7924 140.808 54.8286 140.848 55.097L140.888 55.3958L140.544 55.6319C140.088 55.9435 139.55 56.5527 138.968 57.4209C138.398 58.2676 137.865 58.9273 137.575 59.1466C137.247 59.393 137.037 59.6578 136.712 60.2242C136.369 60.8351 136.171 61.0784 135.864 61.2442C135.67 61.3535 135.63 61.4108 135.563 61.6696C135.482 61.9802 135.086 62.7247 134.421 63.8228C133.724 64.9682 133.525 65.9235 133.827 66.7016L133.942 66.9895L133.726 67.2095C133.609 67.3267 133.396 67.4617 133.26 67.5123C132.561 67.7482 131.844 67.341 130.632 66.0257C130.066 65.4123 130.041 65.3689 129.941 64.95C129.852 64.5586 129.531 63.9287 129.309 63.7177C129.249 63.6653 129.245 63.4923 129.288 63.1352C129.366 62.4801 129.366 61.51 129.279 60.3576L129.215 59.4446L129.406 59.3469C129.508 59.2873 129.73 59.1855 129.901 59.1193C130.649 58.8162 131.042 58.5069 131.135 58.1503C131.162 58.0468 131.317 57.6633 131.484 57.3016C131.827 56.5494 131.928 56.0905 131.815 55.8157C131.722 55.5828 131.448 55.2661 131.375 55.3087C131.345 55.3314 131.177 55.5519 130.999 55.8126C130.828 56.0691 130.592 56.3639 130.476 56.4565C130.285 56.622 129.87 56.7783 129.828 56.7058C129.821 56.6856 129.87 56.5448 129.939 56.3969C130.193 55.8673 130.236 55.0375 130.034 54.3957C129.794 53.5965 129.115 52.8985 128.419 52.7179C128.097 52.6342 128.081 52.8143 128.369 53.2449C128.677 53.7118 128.716 53.9861 128.558 54.5958C128.452 55.0042 127.896 56.2964 127.678 56.6389C127.647 56.6862 127.611 56.5662 127.579 56.3555C127.47 55.5229 127.034 54.6973 126.464 54.218C126.157 53.9601 126.069 53.919 125.603 53.798C125.114 53.6711 125.084 53.6694 125.036 53.7857C125.002 53.869 125.052 54.0049 125.2 54.2398C125.457 54.6442 125.525 54.9994 125.469 55.7095C125.448 56.0048 125.412 56.4744 125.392 56.7639C125.323 57.667 125.513 58.2135 126.028 58.6174L126.252 58.7982L126.148 59.0538C126.087 59.1974 125.922 59.6644 125.782 60.0883C125.213 61.758 124.803 62.3698 123.834 63.0025C123.356 63.3081 123.178 63.5198 122.935 64.0523C122.589 64.8405 122.268 65.0394 121.513 64.9418C121.466 64.9356 121.4 64.9985 121.365 65.0875C121.313 65.2153 121.332 65.2631 121.486 65.3769C121.922 65.7109 122.741 65.7701 123.54 65.5294C124.285 65.3113 124.473 65.1515 125.09 64.2433C125.446 63.7218 125.851 63.2988 125.899 63.3973C125.92 63.4335 125.961 63.7019 125.994 63.9992C126.088 64.7726 126.329 65.8788 126.537 66.4731C126.711 66.9604 126.887 67.2762 128.036 69.1647C129.238 71.1343 129.85 73.4604 129.746 75.7051C129.736 75.9789 129.744 76.2081 129.773 76.2156C129.796 76.2215 129.973 76.1078 130.163 75.9668C130.493 75.7147 130.938 75.2286 131.731 74.2557L132.091 73.815L132.5 73.7985C133.053 73.7761 133.741 73.8687 134.592 74.0897L135.299 74.2734L135.252 74.4574C135.19 74.6933 134.975 74.9565 134.492 75.3961C134.08 75.7801 133.846 76.0879 133.779 76.3468C133.751 76.4561 133.589 76.6535 133.333 76.8818C132.923 77.2543 132.548 77.777 132.466 78.0934C132.344 78.5651 131.238 79.3464 130.451 79.5166C129.482 79.7255 128.784 79.5751 128.056 78.9992C126.748 77.9598 125.925 77.4882 125.007 77.2378C124.566 77.1171 124.412 77.0955 124.27 77.1447C124.062 77.2135 123.797 77.5253 123.647 77.867C123.523 78.1541 123.556 78.1688 124.099 78.0642C124.493 77.9885 124.499 77.99 124.645 78.1383C124.79 78.2866 124.836 78.5378 124.785 78.8746L124.758 79.0517L124.216 78.9848C123.305 78.8772 122.745 78.9773 122.298 79.3279C122.106 79.4746 121.801 79.9418 121.842 80.02C121.856 80.0359 122.026 80.0432 122.215 80.0248C123.118 79.9522 123.851 80.1548 124.219 80.5819C124.436 80.8346 124.43 80.8821 124.198 80.8772C123.937 80.8647 123.509 81.0483 123.237 81.2908C122.961 81.5262 122.596 82.0576 122.529 82.3165C122.46 82.5811 122.678 82.5946 123.199 82.3614C123.977 82.011 124.258 82.0164 124.661 82.3789C125.019 82.705 125.712 82.8972 126.351 82.8482C126.625 82.8333 127.082 82.7495 127.369 82.6642C128.367 82.3647 128.201 82.3647 129.249 82.6797C130.12 82.9426 130.202 82.9578 130.421 82.8978C131.035 82.7318 131.216 82.7176 131.51 82.8182C131.836 82.9336 132.236 83.2586 132.583 83.6985C133.036 84.2704 133.441 84.437 134.528 84.5044C135.315 84.549 135.916 84.6928 136.175 84.9012C136.283 84.9843 136.381 85.053 136.399 85.0574C136.491 85.0813 136.548 84.5312 136.485 84.2266C136.336 83.5247 135.834 83.118 134.26 82.4149C133.93 82.2678 133.526 82.0768 133.373 82.0005C133.042 81.8346 133.035 81.8634 133.519 81.1543C134.152 80.2317 134.91 79.6303 137.144 78.2826C138.047 77.7372 138.907 77.1929 139.055 77.0717C139.202 76.9563 139.338 76.8566 139.355 76.8611C139.373 76.8656 139.402 77.1311 139.429 77.4513C139.451 77.77 139.548 78.4829 139.646 79.0301C139.796 79.8919 139.836 80.0249 139.958 80.075C140.141 80.1473 140.223 80.0702 140.948 79.1225C141.851 77.9386 142.23 77.6134 142.859 77.4822C143.176 77.423 143.327 77.4316 143.905 77.5449C144.511 77.6715 144.62 77.6753 145.059 77.5928C145.329 77.5462 145.8 77.4351 146.107 77.3428C147.068 77.0704 147.822 77.0267 148.242 77.228C148.417 77.3103 148.42 77.3233 148.378 77.7236C148.303 78.5084 148.524 79.0509 149.298 80.0193C149.572 80.3605 149.795 80.6825 149.798 80.7445C149.817 81.0935 150.401 81.6133 151.172 81.9546C151.943 82.296 152.663 82.8329 152.614 83.0227C152.573 83.178 152.027 83.5089 151.288 83.8265C150.859 84.0101 150.463 84.1895 150.403 84.2294C150.348 84.2764 150.223 84.2868 150.131 84.2629C150.033 84.2376 149.592 84.2091 149.152 84.1994C148.511 84.1864 148.256 84.1509 147.87 84.0321C147.17 83.8197 146.861 83.5431 146.25 82.5863C145.978 82.1658 145.653 81.7377 145.507 81.6139C145.251 81.3939 145.218 81.3792 144.529 81.2433C143.588 81.0604 143.124 81.075 142.711 81.3177C142.485 81.4555 142.369 81.5727 142.253 81.7821C142.168 81.9442 142.117 82.0907 142.139 82.127C142.164 82.1704 142.415 82.1496 142.737 82.092C143.066 82.0301 143.34 82.0153 143.399 82.0489C143.451 82.0869 143.583 82.287 143.688 82.4984C143.9 82.9341 144.14 83.1683 144.795 83.5778C145.037 83.7328 145.306 83.9255 145.392 83.9969C145.552 84.1367 145.831 84.5529 145.812 84.6276C145.791 84.7082 145.355 84.6379 145.101 84.5045C144.956 84.4239 144.582 84.1611 144.275 83.9032L143.707 83.4426L143.058 83.3171C141.597 83.0301 140.874 83.1923 140.449 83.9048C140.097 84.4825 140.184 84.5726 140.912 84.3933C141.503 84.2458 141.405 84.1959 142.001 84.9277L142.317 85.3169L142.1 85.4446C141.789 85.6277 141.625 85.8309 141.495 86.1901C141.383 86.5048 141.386 86.966 141.501 86.9959C141.524 87.0019 141.624 86.948 141.717 86.8739C142.004 86.6415 142.348 86.6201 143.152 86.7859C143.868 86.935 144.273 86.9358 144.576 86.7872C144.747 86.6965 145.527 86.6473 145.994 86.6947C146.227 86.7185 146.942 86.8734 147.58 87.0391C148.213 87.2033 148.985 87.3732 149.292 87.4221L149.843 87.4977L150.44 88.0147C151.631 89.0546 152.294 89.3863 153.11 89.3403L153.534 89.3153L153.906 89.6574C154.33 90.0561 154.457 90.1135 154.506 89.9236C154.567 89.6878 154.53 89.3098 154.425 89.0307C154.196 88.4435 153.531 87.9085 152.338 87.3472C151.982 87.1811 151.714 87.0316 151.743 87.0146C151.771 87.0033 152.056 86.967 152.365 86.9366C154.477 86.7236 156.638 85.8479 158.269 84.5337C158.603 84.2643 158.912 83.9947 158.966 83.9288C159.019 83.8688 159.097 83.8277 159.149 83.8411C159.2 83.8546 159.617 84.1163 160.077 84.426C160.994 85.0324 161.535 85.3386 161.615 85.2917C161.687 85.2491 161.797 84.3752 161.777 84.0262C161.755 83.6642 161.597 83.2549 161.385 82.9849C161.279 82.847 160.881 82.584 160.114 82.1331C158.858 81.3896 158.325 81.0303 157.826 80.5631C157.53 80.2837 157.469 80.188 157.401 79.8818C157.328 79.5741 157.334 79.4776 157.437 79.1543C157.533 78.8539 157.609 78.7263 157.842 78.492C158.172 78.1663 159.565 77.3184 159.72 77.3587C159.921 77.411 160.437 77.9071 160.928 78.5255C161.205 78.874 161.492 79.2124 161.566 79.2808C161.775 79.4701 163.735 80.5312 164.279 80.7524C164.556 80.8673 164.937 80.9846 165.138 81.0123C165.451 81.0627 165.546 81.0996 165.779 81.2891C166.124 81.5689 166.543 81.7514 167.624 82.0811C168.966 82.491 169.393 82.7615 169.741 83.4104C169.902 83.7102 169.903 83.7535 169.838 84.4058C169.745 85.3577 169.564 86.195 169.36 86.6515C169.186 87.0362 168.826 87.5259 168.626 87.6581C168.559 87.7022 168.469 87.8816 168.386 88.1547C168.172 88.8605 167.638 89.3111 166.866 89.4483C166.551 89.5017 166.454 89.4951 166.023 89.3586C165.28 89.1227 164.971 88.8216 164.054 87.4599C163.283 86.3142 163.33 86.3449 162.538 86.2989C161.389 86.2338 160.819 86.442 160.563 87.0263C160.458 87.2632 160.462 87.2704 160.604 87.2702C161.254 87.2732 161.372 87.2916 161.601 87.4248C161.842 87.561 162.149 88.0092 162.078 88.1195C162.057 88.151 161.816 88.2051 161.538 88.2372C160.505 88.3619 159.841 88.601 159.51 88.9756C159.433 89.06 159.319 89.2636 159.257 89.4317C159.143 89.7276 159.147 89.7348 159.297 89.7736C159.377 89.7946 159.585 89.7503 159.771 89.6756C160.252 89.4752 160.363 89.4734 160.716 89.6754C161.083 89.8935 161.503 90.0025 162.365 90.1097C163.395 90.2357 163.427 90.2995 162.581 90.485C161.657 90.6871 161.011 91.0229 160.567 91.5277C160.399 91.7236 160.237 91.9701 160.21 92.0736C160.167 92.2404 160.177 92.2737 160.303 92.3065C160.378 92.3259 160.632 92.2936 160.862 92.2366C161.388 92.103 161.952 92.059 162.216 92.1277C162.607 92.2293 163.16 92.1824 163.823 91.9923C165.018 91.6456 165.319 91.6685 165.93 92.1525C166.563 92.6483 166.986 92.7458 168.22 92.6733C169.293 92.608 169.675 92.7686 170.668 93.7202C171.176 94.2018 171.217 94.231 171.428 94.2243C172.069 94.2127 172.53 94.3754 173.011 94.7949C173.161 94.926 173.301 95.0483 173.323 95.06C173.414 95.1329 173.506 94.5183 173.446 94.2078C173.369 93.7949 173.149 93.5047 172.517 92.9844C172.244 92.76 171.86 92.4394 171.663 92.2777C171.055 91.7821 170.804 91.2567 170.927 90.7605C170.957 90.6454 171.164 90.2019 171.391 89.7759C172.709 87.3 173.299 85.5252 173.387 83.7675C173.399 83.5068 173.42 83.285 173.435 83.2765C173.448 83.2737 173.598 83.4293 173.762 83.6253C173.931 83.8229 174.238 84.1298 174.444 84.306C174.788 84.5916 174.868 84.637 175.288 84.746C175.84 84.8894 175.972 84.856 175.99 84.5722C176.023 84.0896 175.842 83.6743 175.309 83.008C174.389 81.848 173.153 80.5757 171.405 78.986C170.929 78.5493 170.519 78.1665 170.502 78.1376C170.485 78.1086 170.665 78.1001 170.905 78.1196C173.171 78.3086 175.209 78.0949 176.991 77.4767C177.867 77.1762 179.272 76.3745 179.849 75.855C180.942 74.8617 181.518 73.3289 181.452 71.5497C181.444 71.2714 181.47 71.1002 181.56 70.8718C181.68 70.5774 181.804 70.3825 182.704 69.0688L183.121 68.4528L183.485 69.0874C183.874 69.7655 184.331 70.3202 184.865 70.7473C185.443 71.2166 185.462 71.1909 185.373 69.9952C185.316 69.1515 185.352 68.0679 185.465 67.158C185.627 65.8737 186.269 63.3514 186.895 61.5553L187.065 61.0653L186.898 61.022C186.753 60.9905 186.631 61.0571 186.068 61.4758C184.793 62.4156 183.206 63.4218 180.586 64.952C178.734 66.0308 177.95 66.521 177.948 66.6002C177.935 66.7687 178.39 66.9299 179.836 67.2745C180.575 67.4541 181.113 67.606 181.105 67.6347C181.071 67.767 180.073 68.8895 180.028 68.853C179.447 68.3952 179.128 68.1776 178.7 67.9374C178.257 67.6811 178.066 67.6131 177.267 67.3998C176.175 67.1161 175.776 67.0923 174.906 67.2719C173.955 67.4608 173.136 67.9665 172.747 68.59C172.502 68.9871 172.316 69.6571 172.315 70.1601C172.319 70.6891 172.444 71.127 172.738 71.6269C173.028 72.1196 173.494 72.523 174.184 72.8679C174.684 73.1204 175.778 73.3983 176.532 73.4714C177.372 73.5482 177.378 73.5496 176.929 73.7892C176.458 74.0415 175.801 74.1841 175.138 74.1839C174.046 74.1827 172.033 73.5866 170.606 72.8415C169.072 72.0321 168.479 71.8105 166.512 71.2998C165.535 71.0403 164.747 70.8112 164.755 70.7824C164.761 70.7594 165.049 70.5703 165.403 70.3674C166.132 69.9488 166.847 69.7476 167.765 69.7098C168.274 69.6884 168.405 69.704 169.285 69.9325C169.822 70.0656 170.253 70.1776 170.253 70.1776C170.253 70.1776 170.167 69.8237 170.059 69.3903C169.787 68.3068 169.763 67.9996 169.88 67.4039C170.119 66.2256 171.182 64.9913 172.639 64.203C173.611 63.6756 175.001 63.2629 176.184 63.1525C176.555 63.1198 176.677 63.0776 176.712 62.9886C176.743 62.9168 176.729 62.8518 176.666 62.8109C176.613 62.7787 176.36 62.5717 176.109 62.3533C175.28 61.6467 175.056 60.9932 175.424 60.3335C175.919 59.4429 176.716 58.8577 178.76 57.8902C179.859 57.3711 180.918 56.7681 180.949 56.6473C180.956 56.6185 180.548 56.6292 180.041 56.6694C179.151 56.7392 178.574 56.8104 174.852 57.3116C173.148 57.5384 171.427 57.6872 170.448 57.6971C169.896 57.6951 169.883 57.6978 169.616 57.5181C168.85 57.0183 168.666 56.1172 169.095 55.0314C169.328 54.4411 169.79 53.726 170.312 53.1369L170.738 52.6521L170.589 52.6133C170.497 52.5894 169.832 52.7362 168.98 52.9692ZM140.437 51.3617C140.779 51.5795 141.349 52.1756 141.356 52.3126C141.354 52.3673 141.297 52.3769 141.187 52.3485C141.095 52.3247 140.659 52.2789 140.213 52.249C139.181 52.1777 138.197 51.9959 138.227 51.8808C138.267 51.7255 138.368 51.6904 138.59 51.7601C138.784 51.8167 138.828 51.8099 138.89 51.6908C138.934 51.6162 138.989 51.5692 139.018 51.5766C139.045 51.5898 139.148 51.6412 139.246 51.6911L139.42 51.7791L139.527 51.365L139.636 50.9451L139.873 51.0496C139.999 51.1069 140.252 51.2461 140.437 51.3617ZM177.064 70.3369C177.319 70.5136 177.623 70.832 177.726 71.0246C177.796 71.1593 177.787 71.1693 177.487 71.3309C176.909 71.6414 176.066 71.6251 175.513 71.2973C175.172 71.0982 174.813 70.5876 174.865 70.3863C174.903 70.2425 175.256 70.0151 175.531 69.9512C175.968 69.85 176.584 70.0097 177.064 70.3369Z" fill="white"/>
</svg>
