<svg width="97" height="98" viewBox="0 0 97 98" fill="none" xmlns="http://www.w3.org/2000/svg">
<circle cx="48.5" cy="49.2704" r="48.5" transform="rotate(-90 48.5 49.2704)" fill="#2578FF"/>
<mask id="mask0_1_125" style="mask-type:alpha" maskUnits="userSpaceOnUse" x="27" y="27" width="44" height="44">
<rect x="27" y="27.7704" width="43.1111" height="43.1111" fill="#D9D9D9"/>
</mask>
<g mask="url(#mask0_1_125)">
<path d="M52.1481 65.4927C51.6392 65.4927 51.2129 65.3202 50.8692 64.9753C50.5243 64.6316 50.3518 64.2053 50.3518 63.6964C50.3518 63.1874 50.5243 62.7611 50.8692 62.4174C51.2129 62.0725 51.6392 61.9001 52.1481 61.9001C53.5552 61.9001 54.8049 61.6234 55.897 61.0702C56.9904 60.5157 57.537 59.8942 57.537 59.2056C57.537 58.7865 57.3424 58.3973 56.9532 58.038C56.564 57.6788 56.0252 57.3495 55.3366 57.0501L57.9861 54.4005C58.9441 54.9694 59.7076 55.643 60.2764 56.4214C60.8452 57.1998 61.1296 58.1278 61.1296 59.2056C61.1296 61.1816 60.1866 62.7234 58.3005 63.8311C56.4143 64.9388 54.3636 65.4927 52.1481 65.4927ZM35.2181 51.751C34.3498 51.242 33.6613 50.6505 33.1523 49.9763C32.6434 49.3032 32.3889 48.4877 32.3889 47.5297C32.3889 46.2723 32.8529 45.2167 33.781 44.3628C34.7091 43.5102 36.3707 42.5599 38.7657 41.5121C40.6518 40.6439 41.8566 40.0374 42.3799 39.6925C42.9044 39.3488 43.1667 38.9674 43.1667 38.5482C43.1667 38.0692 42.8745 37.6501 42.2901 37.2908C41.7069 36.9316 40.8015 36.7519 39.5741 36.7519C38.8256 36.7519 38.1969 36.8417 37.688 37.0214C37.179 37.201 36.715 37.5004 36.2958 37.9195C35.9665 38.2488 35.5623 38.4434 35.0833 38.5033C34.6043 38.5632 34.1702 38.4285 33.781 38.0991C33.3918 37.7998 33.1673 37.4106 33.1074 36.9316C33.0475 36.4525 33.1822 36.0184 33.5116 35.6292C34.0804 34.9407 34.8965 34.3569 35.9599 33.8779C37.0221 33.3988 38.2268 33.1593 39.5741 33.1593C41.7296 33.1593 43.466 33.6455 44.7833 34.6179C46.1006 35.5915 46.7593 36.9016 46.7593 38.5482C46.7593 39.7158 46.3251 40.7637 45.4569 41.6917C44.5887 42.6198 42.8373 43.6527 40.2028 44.7904C38.4664 45.5388 37.3287 46.0927 36.7898 46.4519C36.2509 46.8112 35.9815 47.1704 35.9815 47.5297C35.9815 47.7991 36.1533 48.0614 36.497 48.3165C36.8419 48.5704 37.3137 48.817 37.9125 49.0566L35.2181 51.751ZM60.8602 46.4519L53.2259 38.8177L55.112 36.9316C55.8306 36.213 56.691 35.8538 57.6933 35.8538C58.6968 35.8538 59.5429 36.213 60.2315 36.9316L62.7463 39.4464C63.4648 40.1349 63.8241 40.9804 63.8241 41.9827C63.8241 42.9863 63.4648 43.8473 62.7463 44.5658L60.8602 46.4519ZM34.1852 65.4927V57.8584L50.7111 41.3325L58.3454 48.9667L41.8194 65.4927H34.1852Z" fill="#05192D"/>
</g>
</svg>
