<svg width="97" height="98" viewBox="0 0 97 98" fill="none" xmlns="http://www.w3.org/2000/svg">
<circle cx="48.5" cy="49.2704" r="48.5" transform="rotate(-90 48.5 49.2704)" fill="#2578FF"/>
<mask id="mask0_1_140" style="mask-type:alpha" maskUnits="userSpaceOnUse" x="26" y="27" width="44" height="44">
<rect x="26" y="27.7704" width="43.1111" height="43.1111" fill="#D9D9D9"/>
</mask>
<g mask="url(#mask0_1_140)">
<path d="M47.5556 69.0853V65.4927H60.1296V63.6964H52.9444V49.326H60.1296V47.5297C60.1296 44.0569 58.9022 41.093 56.4472 38.638C53.9923 36.1831 51.0284 34.9556 47.5556 34.9556C44.0827 34.9556 41.1188 36.1831 38.6639 38.638C36.2089 41.093 34.9815 44.0569 34.9815 47.5297V49.326H42.1667V63.6964H34.9815C33.9935 63.6964 33.1475 63.3449 32.4433 62.6419C31.7404 61.9378 31.3889 61.0917 31.3889 60.1038V47.5297C31.3889 45.3143 31.8152 43.2258 32.6678 41.2642C33.5217 39.3039 34.6821 37.5902 36.1491 36.1232C37.616 34.6562 39.3297 33.4958 41.2901 32.642C43.2516 31.7894 45.3401 31.363 47.5556 31.363C49.771 31.363 51.8595 31.7894 53.821 32.642C55.7814 33.4958 57.4951 34.6562 58.962 36.1232C60.429 37.5902 61.5894 39.3039 62.4433 41.2642C63.2959 43.2258 63.7222 45.3143 63.7222 47.5297V65.4927C63.7222 66.4806 63.3707 67.3267 62.6678 68.0308C61.9636 68.7338 61.1176 69.0853 60.1296 69.0853H47.5556Z" fill="#05192D"/>
</g>
</svg>
